<svg width="50" height="50" viewBox="0 0 50 50" fill="none" xmlns="http://www.w3.org/2000/svg">
    <path d="M41.2969 48.6718H8.70313C6.80915 48.6635 4.99533 47.9064 3.65754 46.5657C2.31975 45.225 1.56661 43.4095 1.5625 41.5155V17.328C1.57032 16.0458 1.92249 14.7893 2.58218 13.6898C3.24187 12.5904 4.18485 11.6883 5.3125 11.078L21.5781 2.18741C22.6257 1.61713 23.7994 1.31836 24.9922 1.31836C26.1849 1.31836 27.3587 1.61713 28.4063 2.18741L44.7188 11.0312C45.8464 11.6414 46.7894 12.5435 47.4491 13.643C48.1088 14.7424 48.4609 15.999 48.4688 17.2812V41.5155C48.4646 43.4149 47.7072 45.2351 46.3626 46.5767C45.0181 47.9183 43.1963 48.6718 41.2969 48.6718ZM25 4.43741C24.3291 4.43641 23.6685 4.6029 23.0781 4.92178L6.76563 13.7812C6.13291 14.1316 5.60612 14.6458 5.24049 15.2698C4.87486 15.8938 4.68385 16.6048 4.6875 17.328V41.5155C4.6875 42.5847 5.11222 43.61 5.86823 44.3661C6.62423 45.1221 7.6496 45.5468 8.71875 45.5468H41.2969C42.3633 45.5426 43.3847 45.1161 44.1373 44.3605C44.8899 43.605 45.3125 42.582 45.3125 41.5155V17.328C45.3131 16.6016 45.1174 15.8886 44.7461 15.2642C44.3748 14.6399 43.8417 14.1275 43.2031 13.7812L26.9219 4.93741C26.333 4.61309 25.6723 4.44121 25 4.43741Z" fill="#5680E9" />
    <path d="M25.0001 41.8124C22.8252 41.8129 20.7178 41.0571 19.0389 39.6746C17.3599 38.2921 16.2138 36.3689 15.797 34.2343C15.763 34.0104 15.7781 33.7817 15.8413 33.5642C15.9044 33.3467 16.0141 33.1455 16.1627 32.9745C16.3114 32.8036 16.4954 32.6671 16.702 32.5743C16.9087 32.4816 17.133 32.4349 17.3595 32.4374C17.7317 32.432 18.0937 32.5597 18.3801 32.7974C18.6666 33.0352 18.8587 33.3674 18.922 33.7343C19.2163 35.1389 19.9849 36.3994 21.0988 37.3041C22.2128 38.2088 23.6041 38.7027 25.0392 38.7027C26.4742 38.7027 27.8656 38.2088 28.9795 37.3041C30.0934 36.3994 30.8621 35.1389 31.1564 33.7343C31.2196 33.3674 31.4118 33.0352 31.6982 32.7974C31.9847 32.5597 32.3466 32.432 32.7189 32.4374C32.9454 32.4349 33.1697 32.4816 33.3763 32.5743C33.583 32.6671 33.767 32.8036 33.9156 32.9745C34.0643 33.1455 34.1739 33.3467 34.2371 33.5642C34.3003 33.7817 34.3154 34.0104 34.2814 34.2343C33.862 36.3821 32.7045 38.3156 31.0094 39.6996C29.3143 41.0837 27.1884 41.8311 25.0001 41.8124Z" fill="#5680E9" />
</svg>