<svg width="50" height="50" viewBox="0 0 50 50" fill="none" xmlns="http://www.w3.org/2000/svg">
    <path d="M41.2969 48.6719H8.70313C6.80915 48.6637 4.99533 47.9065 3.65754 46.5658C2.31975 45.2251 1.56661 43.4096 1.5625 41.5157V17.3282C1.57032 16.046 1.92249 14.7894 2.58218 13.69C3.24187 12.5905 4.18485 11.6884 5.3125 11.0782L21.5781 2.18753C22.6257 1.61726 23.7994 1.31848 24.9922 1.31848C26.1849 1.31848 27.3587 1.61726 28.4063 2.18753L44.7188 11.0313C45.8464 11.6416 46.7894 12.5436 47.4491 13.6431C48.1088 14.7426 48.4609 15.9991 48.4688 17.2813V41.5157C48.4646 43.415 47.7072 45.2352 46.3626 46.5768C45.0181 47.9184 43.1963 48.6719 41.2969 48.6719ZM25 4.43753C24.3291 4.43653 23.6685 4.60302 23.0781 4.9219L6.76563 13.7813C6.13291 14.1317 5.60612 14.6459 5.24049 15.2699C4.87486 15.894 4.68385 16.6049 4.6875 17.3282V41.5157C4.6875 42.5848 5.11222 43.6102 5.86823 44.3662C6.62423 45.1222 7.6496 45.5469 8.71875 45.5469H41.2969C42.3633 45.5428 43.3847 45.1162 44.1373 44.3607C44.8899 43.6051 45.3125 42.5821 45.3125 41.5157V17.3282C45.3131 16.6017 45.1174 15.8887 44.7461 15.2643C44.3748 14.64 43.8417 14.1276 43.2031 13.7813L26.9219 4.93753C26.333 4.61321 25.6723 4.44133 25 4.43753Z" fill="black" />
    <path d="M25.0001 41.8125C22.8252 41.813 20.7178 41.0572 19.0389 39.6747C17.3599 38.2922 16.2138 36.369 15.797 34.2344C15.763 34.0105 15.7781 33.7818 15.8413 33.5643C15.9044 33.3468 16.0141 33.1456 16.1627 32.9747C16.3114 32.8037 16.4954 32.6672 16.702 32.5744C16.9087 32.4817 17.133 32.435 17.3595 32.4375C17.7317 32.4321 18.0937 32.5598 18.3801 32.7976C18.6666 33.0353 18.8587 33.3676 18.922 33.7344C19.2163 35.139 19.9849 36.3995 21.0988 37.3042C22.2128 38.209 23.6041 38.7028 25.0392 38.7028C26.4742 38.7028 27.8656 38.209 28.9795 37.3042C30.0934 36.3995 30.8621 35.139 31.1564 33.7344C31.2196 33.3676 31.4118 33.0353 31.6982 32.7976C31.9847 32.5598 32.3466 32.4321 32.7189 32.4375C32.9454 32.435 33.1697 32.4817 33.3763 32.5744C33.583 32.6672 33.767 32.8037 33.9156 32.9747C34.0643 33.1456 34.1739 33.3468 34.2371 33.5643C34.3003 33.7818 34.3154 34.0105 34.2814 34.2344C33.862 36.3822 32.7045 38.3157 31.0094 39.6997C29.3143 41.0838 27.1884 41.8312 25.0001 41.8125Z" fill="black" />
</svg>