<svg width="50" height="50" viewBox="0 0 50 50" fill="none" xmlns="http://www.w3.org/2000/svg">
<g clip-path="url(#clip0_2_629)">
<path d="M43.0833 2.43121L43.0396 2.41663L37.3833 0.541627C35.4296 -0.107007 33.3278 -0.164262 31.3417 0.377044L19.725 3.74996C18.3026 4.12691 16.7932 3.99424 15.4583 3.37496L14.4167 2.89163C12.8346 2.23365 11.1146 1.97612 9.40915 2.14185C7.70372 2.30758 6.06551 2.89145 4.63969 3.84172C3.21388 4.79198 2.04449 6.07931 1.23517 7.58959C0.425856 9.09988 0.00159851 10.7865 0 12.5L0 37.6562C0.00437832 39.909 0.737067 42.0999 2.08873 43.9021C3.44039 45.7044 5.33857 47.0212 7.5 47.6562L13.4771 49.5312C14.4855 49.8447 15.5357 50.0027 16.5917 49.9999C17.5329 50.0119 18.4708 49.8848 19.375 49.6229L31.4583 46.2895C32.5626 45.99 33.7278 45.9994 34.8271 46.3166L39.7083 47.7249C40.9338 48.0212 42.2105 48.0356 43.4423 47.7669C44.6741 47.4983 45.8289 46.9537 46.8197 46.174C47.8106 45.3944 48.6116 44.4001 49.1624 43.2661C49.7133 42.132 49.9997 40.8878 50 39.627V12.2416C49.9968 10.0934 49.3309 7.99841 48.093 6.24266C46.8552 4.4869 45.1057 3.15587 43.0833 2.43121ZM8.7 43.6645C7.39647 43.2876 6.25019 42.4984 5.43291 41.4152C4.61563 40.332 4.17136 39.0131 4.16667 37.6562V12.5C4.15654 11.468 4.40616 10.4501 4.89255 9.53999C5.37894 8.62984 6.08646 7.85666 6.95 7.29162C7.97751 6.61005 9.18366 6.24762 10.4167 6.24996C11.2118 6.25018 11.9991 6.40735 12.7333 6.71246C12.7333 6.71246 14.2854 7.37704 14.5812 7.48329V45.5041L8.7 43.6645ZM18.75 45.4729V8.08121C19.4576 8.04366 20.1597 7.93548 20.8458 7.75829L31.25 4.73537V42.0833L18.75 45.4729ZM45.8333 39.627C45.8338 40.2511 45.694 40.8672 45.4245 41.43C45.1549 41.9929 44.7623 42.4879 44.2757 42.8787C43.7892 43.2694 43.2211 43.5459 42.6134 43.6877C42.0056 43.8295 41.3738 43.833 40.7646 43.6979L35.4167 42.1916V4.32288L41.7042 6.36246C42.9125 6.80028 43.957 7.59929 44.6956 8.65105C45.4343 9.7028 45.8315 10.9564 45.8333 12.2416V39.627Z" fill="black"/>
</g>
<defs>
<clipPath id="clip0_2_629">
<rect width="50" height="50" fill="white"/>
</clipPath>
</defs>
</svg>
