<svg width="50" height="50" viewBox="0 0 50 50" fill="none" xmlns="http://www.w3.org/2000/svg">
    <g clip-path="url(#clip0_562_271)">
        <path d="M43.0833 2.43126L43.0396 2.41667L37.3833 0.541673C35.4296 -0.106961 33.3278 -0.164216 31.3417 0.377089L19.725 3.75C18.3026 4.12695 16.7932 3.99429 15.4583 3.375L14.4167 2.89167C12.8346 2.2337 11.1146 1.97617 9.40916 2.14189C7.70372 2.30762 6.06551 2.89149 4.63969 3.84176C3.21388 4.79203 2.04449 6.07935 1.23517 7.58964C0.425856 9.09992 0.00159851 10.7865 0 12.5L0 37.6562C0.00437832 39.909 0.737067 42.1 2.08873 43.9022C3.44039 45.7044 5.33857 47.0213 7.5 47.6562L13.4771 49.5312C14.4855 49.8447 15.5357 50.0028 16.5917 50C17.5329 50.0119 18.4708 49.8848 19.375 49.6229L31.4583 46.2896C32.5626 45.9901 33.7278 45.9995 34.8271 46.3167L39.7083 47.725C40.9338 48.0213 42.2105 48.0356 43.4423 47.767C44.6741 47.4983 45.8289 46.9537 46.8197 46.1741C47.8106 45.3945 48.6116 44.4002 49.1624 43.2661C49.7133 42.1321 49.9997 40.8878 50 39.6271V12.2417C49.9968 10.0934 49.3309 7.99846 48.093 6.2427C46.8552 4.48694 45.1057 3.15591 43.0833 2.43126V2.43126ZM8.7 43.6646C7.39647 43.2876 6.25019 42.4984 5.43291 41.4152C4.61563 40.332 4.17136 39.0132 4.16667 37.6562V12.5C4.15654 11.4681 4.40616 10.4502 4.89255 9.54004C5.37894 8.62988 6.08646 7.8567 6.95 7.29167C7.97751 6.61009 9.18366 6.24767 10.4167 6.25C11.2118 6.25022 11.9991 6.40739 12.7333 6.7125C12.7333 6.7125 14.2854 7.37709 14.5812 7.48334V45.5041L8.7 43.6646ZM18.75 45.4729V8.08125C19.4576 8.0437 20.1597 7.93553 20.8458 7.75834L31.25 4.73542V42.0833L18.75 45.4729ZM45.8333 39.6271C45.8338 40.2511 45.694 40.8673 45.4245 41.4301C45.1549 41.9929 44.7623 42.488 44.2757 42.8787C43.7892 43.2695 43.2211 43.546 42.6134 43.6878C42.0056 43.8295 41.3738 43.833 40.7646 43.6979L35.4167 42.1917V4.32292L41.7042 6.3625C42.9125 6.80032 43.957 7.59933 44.6956 8.65109C45.4343 9.70285 45.8315 10.9564 45.8333 12.2417V39.6271Z" fill="#5680E9" />
    </g>
    <defs>
        <clipPath id="clip0_562_271">
            <rect width="50" height="50" fill="white" />
        </clipPath>
    </defs>
</svg>