<svg width="50" height="50" viewBox="0 0 50 50" fill="none" xmlns="http://www.w3.org/2000/svg">
    <path d="M23.9083 31.25C23.3558 31.25 22.8259 31.4695 22.4352 31.8602C22.0445 32.2509 21.825 32.7808 21.825 33.3333V39.5833C21.825 41.2409 21.1665 42.8306 19.9944 44.0027C18.8223 45.1749 17.2326 45.8333 15.575 45.8333H10.4167C8.75906 45.8333 7.16935 45.1749 5.99725 44.0027C4.82515 42.8306 4.16667 41.2409 4.16667 39.5833V10.4167C4.16667 8.75906 4.82515 7.16935 5.99725 5.99725C7.16935 4.82515 8.75906 4.16667 10.4167 4.16667H15.575C17.2326 4.16667 18.8223 4.82515 19.9944 5.99725C21.1665 7.16935 21.825 8.75906 21.825 10.4167V16.6667C21.825 17.2192 22.0445 17.7491 22.4352 18.1398C22.8259 18.5305 23.3558 18.75 23.9083 18.75C24.4609 18.75 24.9908 18.5305 25.3815 18.1398C25.7722 17.7491 25.9917 17.2192 25.9917 16.6667V10.4167C25.9884 7.65501 24.8898 5.00741 22.937 3.05462C20.9843 1.10184 18.3367 0.00330804 15.575 0H10.4167C7.65501 0.00330804 5.00741 1.10184 3.05462 3.05462C1.10184 5.00741 0.00330804 7.65501 0 10.4167L0 39.5833C0.00330804 42.345 1.10184 44.9926 3.05462 46.9454C5.00741 48.8982 7.65501 49.9967 10.4167 50H15.575C18.3367 49.9967 20.9843 48.8982 22.937 46.9454C24.8898 44.9926 25.9884 42.345 25.9917 39.5833V33.3333C25.9917 32.7808 25.7722 32.2509 25.3815 31.8602C24.9908 31.4695 24.4609 31.25 23.9083 31.25Z" fill="#FF0000" />
    <path d="M47.6394 20.5812L38.0853 11.0271C37.8931 10.8281 37.6632 10.6694 37.409 10.5602C37.1548 10.451 36.8815 10.3935 36.6048 10.3911C36.3282 10.3887 36.0539 10.4414 35.7979 10.5462C35.5418 10.6509 35.3092 10.8056 35.1136 11.0012C34.918 11.1969 34.7633 11.4295 34.6585 11.6855C34.5538 11.9415 34.5011 12.2159 34.5035 12.4925C34.5059 12.7691 34.5634 13.0425 34.6725 13.2967C34.7817 13.5508 34.9404 13.7807 35.1394 13.9729L44.0186 22.8542L12.4998 22.9167C11.9473 22.9167 11.4174 23.1361 11.0267 23.5268C10.636 23.9175 10.4165 24.4475 10.4165 25C10.4165 25.5525 10.636 26.0824 11.0267 26.4731C11.4174 26.8638 11.9473 27.0833 12.4998 27.0833L44.1415 27.0187L35.1353 36.0271C34.9363 36.2192 34.7776 36.4491 34.6684 36.7033C34.5592 36.9575 34.5017 37.2309 34.4993 37.5075C34.4969 37.7841 34.5496 38.0584 34.6544 38.3145C34.7591 38.5705 34.9138 38.8031 35.1094 38.9987C35.305 39.1943 35.5376 39.349 35.7937 39.4538C36.0497 39.5585 36.3241 39.6112 36.6007 39.6088C36.8773 39.6064 37.1507 39.549 37.4048 39.4398C37.659 39.3306 37.8889 39.1719 38.0811 38.9729L47.6353 29.4187C48.8075 28.2472 49.4665 26.6581 49.4673 25.0008C49.468 23.3436 48.8106 21.7538 47.6394 20.5812Z" fill="#FF0000" />
</svg>